# xmcd
#
# Track frame offsets:
#	150
#	17570
#	28425
#	55222
#	66702
#	90325
#	106185
#	128212
#	151225
#	168270
#	189242
#	203390
#	225575
#
# Disc length: 3226 seconds
#
# Revision: 3
# Processed by: cddbd v1.4PL0 Copyright (c) Steve Scherf et al.
# Submitted via: audiograbber 1.80
#
DISCID=9f0c980d
DTITLE=JW Roy and the One Night Band - Deeper Shades
DYEAR=1900
DGENRE=
TTITLE0=Traveller
TTITLE1=What's Left Behind
TTITLE2=6th Street (The Corner Of Your Mind)
TTITLE3=Savannah Bay
TTITLE4=Easier
TTITLE5=Benjamin
TTITLE6=I Believe
TTITLE7=Amsterdam, Sunday Night
TTITLE8=Deeper Shades
TTITLE9=Way West
TTITLE10=Learning To Crawl
TTITLE11=The Right Number
TTITLE12=Broken Wings
EXTD=
EXTT0=
EXTT1=
EXTT2=
EXTT3=
EXTT4=
EXTT5=
EXTT6=
EXTT7=(duet with Ilse DeLange)
EXTT8=
EXTT9=
EXTT10=
EXTT11=
EXTT12=
PLAYORDER=
